<?xml version="1.0" encoding="UTF-8"?>
<svg version="1.1" xmlns="http://www.w3.org/2000/svg" width="1080" height="1920">
<path d="M0 0 C30.36 0 60.72 0 92 0 C92 107.25 92 214.5 92 325 C61.64 325 31.28 325 0 325 C0 313.45 0 301.9 0 290 C17.82 290 35.64 290 54 290 C54 206.18 54 122.36 54 36 C36.18 36 18.36 36 0 36 C0 24.12 0 12.24 0 0 Z " fill="#FFFFFF" transform="translate(635,773)"/>
<path d="M0 0 C30.36 0 60.72 0 92 0 C92 11.88 92 23.76 92 36 C74.18 36 56.36 36 38 36 C38 119.82 38 203.64 38 290 C55.82 290 73.64 290 92 290 C92 301.55 92 313.1 92 325 C61.64 325 31.28 325 0 325 C0 217.75 0 110.5 0 0 Z " fill="#FFFFFF" transform="translate(401,773)"/>
<path d="M0 0 C4.60803751 2.21041799 8.19786494 5.1307697 10 10 C10.64649966 15.8184969 10.82525782 21.19078093 8.375 26.5625 C3.72061795 31.33936579 0.66851913 33.24754486 -6.0625 33.4375 C-11.3671313 33.43067293 -14.74604021 32.23688434 -18.546875 28.46484375 C-23.22955825 22.52026858 -23.76556617 18.51743446 -23 11 C-18.11238806 1.04375346 -10.43378451 -1.39551868 0 0 Z M-18 8 C-20.52617284 12.24816609 -20.68816871 16.16603445 -20 21 C-17.99478391 24.86720247 -15.88872822 27.94761566 -12 30 C-6.43457474 31.39135632 -2.79571235 31.31063076 2.23046875 28.42578125 C5.41310117 25.86140855 6.9872218 22.92986471 8 19 C8.27145386 14.08668508 7.08640902 9.85801128 4 6 C0.05458898 2.42447127 -4.2355322 2.44064777 -9.3359375 2.578125 C-13.57923292 3.2500838 -15.16891652 4.8059571 -18 8 Z " fill="#FFFFFF" transform="translate(751,735)"/>
<path d="M0 0 C10.17966102 -0.48474576 10.17966102 -0.48474576 13.75 1.625 C15.44326482 4.84220316 14.7456666 6.47503063 14 10 C14.17593667 12.70746981 14.58326876 15.31439865 15 18 C13.68 17.67 12.36 17.34 11 17 C11 15.02 11 13.04 11 11 C8.36 10.67 5.72 10.34 3 10 C3 12.64 3 15.28 3 18 C2.01 18 1.02 18 0 18 C0 12.06 0 6.12 0 0 Z M3 3 C3 4.65 3 6.3 3 8 C5.31 8 7.62 8 10 8 C10.33 6.35 10.66 4.7 11 3 C8.36 3 5.72 3 3 3 Z " fill="#FFFFFF" transform="translate(738,742)"/>
</svg>
